<svg xmlns="http://www.w3.org/2000/svg" xmlns:xlink="http://www.w3.org/1999/xlink" width="263.991" height="263.991" viewBox="0 0 263.991 263.991">
  <defs>
    <radialGradient id="radial-gradient" cx="0.5" cy="0.5" r="0.5" gradientTransform="matrix(0.924, 0.383, -0.383, 0.924, 0.229, -0.153)" gradientUnits="objectBoundingBox">
      <stop offset="0" stop-color="#56cbff"/>
      <stop offset="0.186" stop-color="#49afe2"/>
      <stop offset="0.586" stop-color="#28699a"/>
      <stop offset="0.946" stop-color="#092655"/>
    </radialGradient>
    <radialGradient id="radial-gradient-2" cx="0.5" cy="0.5" r="0.5" gradientTransform="translate(0)" gradientUnits="objectBoundingBox">
      <stop offset="0.93" stop-color="#000503"/>
      <stop offset="0.94" stop-color="#010807"/>
      <stop offset="0.952" stop-color="#051015"/>
      <stop offset="0.965" stop-color="#0b1f2d"/>
      <stop offset="0.978" stop-color="#14334e"/>
      <stop offset="0.991" stop-color="#204d77"/>
      <stop offset="1" stop-color="#296197"/>
    </radialGradient>
  </defs>
  <g id="go" transform="translate(-104 -567)">
    <ellipse id="Ellipse_5" data-name="Ellipse 5" cx="131.995" cy="131.995" rx="131.995" ry="131.995" transform="translate(104 567)" opacity="0.5" fill="url(#radial-gradient)" style="mix-blend-mode: screen;isolation: isolate"/>
    <path id="Tracé_36" data-name="Tracé 36" d="M503.816,1200.089l92.162-33.544a129.754,129.754,0,0,1,4.412,16.516ZM344.387,1188.56a131.422,131.422,0,0,0-1.476,17.028h98.044Zm.963,45.141a129.692,129.692,0,0,0,4.412,16.516l92.162-33.544Zm-2.439-22.528a131.418,131.418,0,0,0,1.476,17.028l96.568-17.028Zm32.2,82.879a131.429,131.429,0,0,0,12.084,12.083l63.017-75.1Zm-23.442-38.587a129.776,129.776,0,0,0,7.235,15.488l84.927-49.032Zm10.032,20.322a130.875,130.875,0,0,0,9.819,13.99l75.1-63.019ZM387.2,1110.626a131.248,131.248,0,0,0-12.084,12.084l75.1,63.016Zm38.587-23.443a129.768,129.768,0,0,0-15.488,7.235l49.032,84.927Zm21.763-6.323a129.457,129.457,0,0,0-16.516,4.412l33.544,92.162Zm-97.788,85.683a129.744,129.744,0,0,0-4.412,16.516l96.574,17.028Zm120.316,9.921v-98.044a131.261,131.261,0,0,0-17.028,1.476Zm-78.6,133.262a130.762,130.762,0,0,0,13.989,9.819l49.03-84.922Zm-32.567-163.918a129.7,129.7,0,0,0-7.235,15.488l92.162,33.544Zm12.615-18.823a130.869,130.869,0,0,0-9.819,13.99l84.923,49.03Zm33.941-29.77a130.736,130.736,0,0,0-13.989,9.82l63.018,75.1Zm181.368,173.737a130,130,0,0,0,7.235-15.488l-92.161-33.544Zm-12.616,18.823a130.868,130.868,0,0,0,9.819-13.99l-84.922-49.029Zm21.762-39.559a129.7,129.7,0,0,0,4.412-16.516l-96.574-17.028Zm-37.437,55.918a131.345,131.345,0,0,0,12.084-12.083l-75.1-63.017Zm44.288-100.546a131.411,131.411,0,0,0-1.476-17.028l-96.568,17.028Zm-1.476,22.612a131.311,131.311,0,0,0,1.476-17.028H504.786Zm-81.4,101.377a129.727,129.727,0,0,0,15.488-7.236l-49.033-84.926Zm-49.876,8.762V1240.3l-17.028,96.568A131.4,131.4,0,0,0,470.078,1338.34Zm5.585,0a131.392,131.392,0,0,0,17.027-1.476L475.663,1240.3Zm-44.629-6.851a129.689,129.689,0,0,0,16.516,4.412l17.028-96.574Zm67.157,4.412a129.716,129.716,0,0,0,16.516-4.412l-33.544-92.163Zm42.085-16.355a130.782,130.782,0,0,0,13.99-9.819l-63.018-75.1Zm-129.977,2.8a129.671,129.671,0,0,0,15.488,7.236l33.544-92.161Zm65.364-243.921v98.044L492.69,1079.9A131.255,131.255,0,0,0,475.663,1078.421Zm108.373,62.554a130.724,130.724,0,0,0-9.819-13.989L499.114,1190Zm10.032,20.321a130.021,130.021,0,0,0-7.235-15.488l-84.926,49.032Zm-23.443-38.586a131.24,131.24,0,0,0-12.084-12.084l-63.017,75.1Zm-16.36-15.676a130.744,130.744,0,0,0-13.99-9.82l-49.029,84.922Zm-18.823-12.617a129.771,129.771,0,0,0-15.488-7.235l-33.545,92.161Zm-20.736-9.145a129.448,129.448,0,0,0-16.516-4.412l-17.028,96.574Z" transform="translate(-237.24 -509.751)" opacity="0.4" fill="url(#radial-gradient-2)" style="mix-blend-mode: screen;isolation: isolate"/>
  </g>
</svg>
