<svg xmlns="http://www.w3.org/2000/svg" width="94.056" height="94.113" viewBox="0 0 94.056 94.113">
  <g id="Fingerprint" transform="translate(0)">
    <path id="Tracé_58" data-name="Tracé 58" d="M450.975,1514.806a1.31,1.31,0,1,0-2.344-1.17,47.048,47.048,0,0,0-1.4,39.164,1.31,1.31,0,1,0,2.42-1A44.442,44.442,0,0,1,450.975,1514.806Z" transform="translate(-443.629 -1487.569)" fill="#244462"/>
    <path id="Tracé_59" data-name="Tracé 59" d="M475.021,1469.73a44.629,44.629,0,0,1,34.193-14.163,1.31,1.31,0,0,0,.093-2.619,47.252,47.252,0,0,0-36.208,15,1.311,1.311,0,0,0,1.922,1.782Z" transform="translate(-460.448 -1452.917)" fill="#244462"/>
    <path id="Tracé_60" data-name="Tracé 60" d="M587.4,1461.05a44.432,44.432,0,0,1,27.088,25.221,18.355,18.355,0,0,1-1.4,16.752,1.309,1.309,0,0,0,2.222,1.385,20.931,20.931,0,0,0,1.6-19.147,47.067,47.067,0,0,0-28.685-26.7,1.312,1.312,0,1,0-.824,2.492Z" transform="translate(-526.153 -1456.137)" fill="#244462"/>
    <path id="Tracé_61" data-name="Tracé 61" d="M509.526,1483.95a34.078,34.078,0,0,0-33.39,27.548,1.311,1.311,0,1,0,2.572.5,31.447,31.447,0,0,1,57.2-11.168,1.31,1.31,0,0,0,2.2-1.428A34.107,34.107,0,0,0,509.526,1483.95Z" transform="translate(-462.391 -1470.842)" fill="#244462"/>
    <path id="Tracé_62" data-name="Tracé 62" d="M540.693,1517.455a1.31,1.31,0,1,0,2.42-1,27.514,27.514,0,1,0-50.839,21.056,53.673,53.673,0,0,0,43.566,32.816,1.309,1.309,0,0,0,.3-2.6,51.042,51.042,0,0,1-41.441-31.215,24.894,24.894,0,1,1,46-19.054Z" transform="translate(-470.512 -1479.802)" fill="#244462"/>
    <path id="Tracé_63" data-name="Tracé 63" d="M515.15,1527.6a1.31,1.31,0,1,0-1.643-2.04,20.975,20.975,0,0,0-6.213,24.351A47,47,0,0,0,529.672,1574a1.309,1.309,0,0,0,1.174-2.34,44.344,44.344,0,0,1-21.132-22.746A18.347,18.347,0,0,1,515.15,1527.6Z" transform="translate(-479.479 -1494.711)" fill="#244462"/>
    <path id="Tracé_64" data-name="Tracé 64" d="M548.694,1517.707A18.354,18.354,0,0,1,567.6,1528.93a7.845,7.845,0,0,0,14.522,0,1.31,1.31,0,0,0-2.42-1,5.243,5.243,0,0,1-9.681,0,20.972,20.972,0,0,0-21.614-12.824,1.309,1.309,0,1,0,.283,2.6Z" transform="translate(-503.477 -1488.768)" fill="#244462"/>
    <path id="Tracé_65" data-name="Tracé 65" d="M544.569,1548.617a5.241,5.241,0,0,1,4.845,3.236A20.968,20.968,0,0,0,576.8,1563.2a1.31,1.31,0,1,0-1-2.42,18.344,18.344,0,0,1-23.967-9.926,7.862,7.862,0,1,0-14.526,6.019,33.773,33.773,0,0,0,7.2,10.885,1.311,1.311,0,1,0,1.867-1.842,32.042,32.042,0,0,1-6.648-10.044,5.342,5.342,0,0,1-.4-2A5.254,5.254,0,0,1,544.569,1548.617Z" transform="translate(-497.391 -1506.68)" fill="#244462"/>
    <path id="Tracé_66" data-name="Tracé 66" d="M604.444,1647.7a1.31,1.31,0,0,0-.274-2.606,44.18,44.18,0,0,1-12.575-.494,1.31,1.31,0,0,0-.473,2.577A46.691,46.691,0,0,0,604.444,1647.7Z" transform="translate(-528.202 -1563.622)" fill="#244462"/>
    <path id="Tracé_67" data-name="Tracé 67" d="M478.221,1585.077a60.157,60.157,0,0,0,35.768,33.821,1.309,1.309,0,0,0,.866-2.471,57.521,57.521,0,0,1-34.214-32.351,32.506,32.506,0,0,1-1.728-5.567,1.311,1.311,0,0,0-2.564.545A34.633,34.633,0,0,0,478.221,1585.077Z" transform="translate(-462.512 -1524.86)" fill="#244462"/>
    <path id="Tracé_68" data-name="Tracé 68" d="M499.831,1647.432a1.309,1.309,0,0,0,0,1.854,66.761,66.761,0,0,0,9.7,8.068,1.31,1.31,0,1,0,1.478-2.163,64.284,64.284,0,0,1-9.318-7.751A1.313,1.313,0,0,0,499.831,1647.432Z" transform="translate(-475.868 -1565.051)" fill="#244462"/>
    <path id="Tracé_69" data-name="Tracé 69" d="M537.278,1493.534c-11.527-27.819-48.334-33.829-68.047-11.24a40.532,40.532,0,0,0-7,42.328,67.145,67.145,0,0,0,5.9,11.151,1.312,1.312,0,0,0,2.192-1.44,64.438,64.438,0,0,1-5.664-10.716,37.9,37.9,0,0,1,6.556-39.6c18.492-21.17,52.9-15.443,63.65,10.522a11.791,11.791,0,1,1-21.787,9.022,14.413,14.413,0,0,0-26.632,11.029,40.608,40.608,0,0,0,50.712,22.868,1.309,1.309,0,1,0-.853-2.475,37.992,37.992,0,0,1-47.439-21.394,11.791,11.791,0,1,1,21.787-9.026,14.413,14.413,0,1,0,26.632-11.029Z" transform="translate(-452.576 -1461.896)" fill="#244462"/>
    <path id="Tracé_70" data-name="Tracé 70" d="M611.318,1602.272a31.414,31.414,0,0,1-29.635,2.991,1.31,1.31,0,0,0-1,2.42,34.329,34.329,0,0,0,32.106-3.24,1.311,1.311,0,1,0-1.47-2.171Z" transform="translate(-522.324 -1539.055)" fill="#244462"/>
    <path id="Tracé_71" data-name="Tracé 71" d="M599.852,1566.886a1.309,1.309,0,0,0-1.825.321c-11.113,15.814-35.73,13.331-43.283-4.883a1.31,1.31,0,1,0-2.42,1c8.334,20.14,35.574,22.877,47.849,5.385A1.309,1.309,0,0,0,599.852,1566.886Z" transform="translate(-506.355 -1515.645)" fill="#244462"/>
    <path id="Tracé_72" data-name="Tracé 72" d="M494.47,1552.9v-1.529h1v1.415c0,4.059,1,5.7,3.409,5.7,2.488,0,3.29-1.685,3.29-5.208,0-3.907-.536-5.014-3.523-7.274-3.371-2.526-4.1-3.907-4.1-7.734,0-4.059,1.225-5.859,4.249-5.859h.114c2.872,0,4.173,2.027,4.173,6.547v1.8h-1v-1.8c0-4.135-.959-5.668-3.371-5.668-2.336,0-3.176,1.571-3.176,4.9,0,3.523.574,4.6,3.637,6.894,3.409,2.564,3.983,3.865,3.983,8.346,0,4.211-1.3,5.935-4.211,5.935h-.19C495.581,1559.363,494.47,1557.069,494.47,1552.9Z" transform="translate(-472.995 -1498.833)" fill="#fff"/>
    <path id="Tracé_73" data-name="Tracé 73" d="M522.483,1534.427H518.31v-.917h9.381v.917H523.48v25.116h-1v-25.116Z" transform="translate(-486.765 -1499.468)" fill="#fff"/>
    <path id="Tracé_74" data-name="Tracé 74" d="M547.42,1551.356h-5.973l-1.377,7.962h-.921l4.558-26.188H545.2l4.6,26.188h-1.035Zm-5.821-.917h5.664l-2.8-16.579h-.076Z" transform="translate(-498.803 -1499.249)" fill="#fff"/>
    <path id="Tracé_75" data-name="Tracé 75" d="M577.728,1559.542l-3.6-12.173h-3.252v12.173h-1V1533.51h2.526c4.363,0,6.277,1.952,6.277,6.889,0,4.287-1.415,6.048-3.6,6.813l3.675,12.33Zm-4.71-13.094c3.328,0,4.634-1.8,4.634-5.973,0-4.477-1.609-6.049-5.17-6.049h-1.609v12.021Z" transform="translate(-516.552 -1499.468)" fill="#fff"/>
    <path id="Tracé_76" data-name="Tracé 76" d="M597.433,1534.427H593.26v-.917h9.381v.917H598.43v25.116h-1Z" transform="translate(-530.057 -1499.468)" fill="#fff"/>
  </g>
</svg>
