<svg id="Groupe_73" data-name="Groupe 73" xmlns="http://www.w3.org/2000/svg" width="80.844" height="64.699" viewBox="0 0 80.844 64.699">
  <g id="Groupe_64" data-name="Groupe 64">
    <g id="Groupe_58" data-name="Groupe 58" transform="translate(9.266 50.063)">
      <path id="Tracé_82" data-name="Tracé 82" d="M476.3,531.862a11.4,11.4,0,0,1-4.492-.861c-5.347-2.285-7.508-8.821-7.6-9.1l-.335-1.04.983-.478a18.663,18.663,0,0,1,7.338-1.666h.053a11.34,11.34,0,0,1,4.434.861c5.348,2.284,7.508,8.821,7.6,9.1l.335,1.041-.984.478A18.6,18.6,0,0,1,476.3,531.862Zm-9.262-9.652c.777,1.749,2.629,5.14,5.759,6.477s6.86.334,8.657-.317c-.777-1.75-2.628-5.139-5.758-6.476a8.859,8.859,0,0,0-3.456-.659H472.2A15.7,15.7,0,0,0,467.041,522.21Z" transform="translate(-463.879 -518.719)" fill="#fff"/>
    </g>
    <g id="Groupe_59" data-name="Groupe 59" transform="translate(3.767 38.217)">
      <path id="Tracé_83" data-name="Tracé 83" d="M459.458,510.267a17.921,17.921,0,0,1-4.1-8.032l-.213-1.073,1.033-.361c.274-.1,6.792-2.319,11.839.566a13.7,13.7,0,0,1,5.4,6.56l-2.312,1a11.237,11.237,0,0,0-4.339-5.37c-2.953-1.688-6.771-1.12-8.636-.683a14.694,14.694,0,0,0,3.144,5.652Z" transform="translate(-455.14 -499.893)" fill="#fff"/>
    </g>
    <g id="Groupe_60" data-name="Groupe 60" transform="translate(0 25.19)">
      <path id="Tracé_84" data-name="Tracé 84" d="M451.5,489.8a23.062,23.062,0,0,1-2.316-9.3l-.03-1.192,1.189-.094c.291-.02,7.159-.508,11.3,3.567a12.336,12.336,0,0,1,3.156,5.8l-2.436.636a9.865,9.865,0,0,0-2.486-4.639c-2.387-2.348-6.144-2.794-8.086-2.86a19.017,19.017,0,0,0,1.9,6.859Z" transform="translate(-449.154 -479.189)" fill="#fff"/>
    </g>
    <g id="Groupe_61" data-name="Groupe 61" transform="translate(3.605 13.957)">
      <path id="Tracé_85" data-name="Tracé 85" d="M470.151,475.964l-2.514-.1c.069-1.635-.022-5.727-2.323-8.394-2.215-2.568-5.99-3.308-7.9-3.521a18.655,18.655,0,0,0,.435,4.87l-2.443.6a22.073,22.073,0,0,1-.414-6.963l.13-1.117,1.125,0c.291,0,7.176.078,10.973,4.479C470,469.049,470.252,473.562,470.151,475.964Z" transform="translate(-454.884 -461.338)" fill="#fff"/>
    </g>
    <g id="Groupe_62" data-name="Groupe 62" transform="translate(7.626)">
      <path id="Tracé_86" data-name="Tracé 86" d="M474.2,455.567l-2.465-.5a10.818,10.818,0,0,0-.367-6.264c-1.338-3.127-4.73-4.977-6.481-5.753a14.026,14.026,0,0,0-.8,7.052l-2.472.478a16.95,16.95,0,0,1,1.152-9.048l-1.5-2.37,3.3,1.062c.277.089,6.818,2.245,9.106,7.589A12.9,12.9,0,0,1,474.2,455.567Z" transform="translate(-461.274 -439.158)" fill="#fff"/>
    </g>
    <g id="Groupe_63" data-name="Groupe 63" transform="translate(27.31 59.218)">
      <path id="Tracé_87" data-name="Tracé 87" d="M500.111,538.749a1.248,1.248,0,0,1-.535-.12l-6.3-2.964a1.258,1.258,0,0,1,1.072-2.277l6.3,2.964a1.259,1.259,0,0,1-.536,2.4Z" transform="translate(-492.555 -533.268)" fill="#fff"/>
    </g>
  </g>
  <g id="Groupe_65" data-name="Groupe 65" transform="translate(28.953 7.306)">
    <path id="Tracé_88" data-name="Tracé 88" d="M519.815,486.638H496.747V480.6l6.85-2.846V462.293h-8.431v-6.073l.763-.327c.058-.025,5.762-2.481,8.037-4.755l.369-.369h9.683v27.047l5.8,2.845Zm-20.55-2.517H517.3v-1.893l-5.8-2.845v-26.1h-6.146a34.993,34.993,0,0,1-7.672,4.581v1.91h8.431v19.663l-6.85,2.846Z" transform="translate(-495.166 -450.768)" fill="#fff"/>
  </g>
  <g id="Groupe_72" data-name="Groupe 72" transform="translate(44.72 0.727)">
    <g id="Groupe_66" data-name="Groupe 66" transform="translate(6.118 49.336)">
      <path id="Tracé_89" data-name="Tracé 89" d="M538.263,531.862a18.606,18.606,0,0,1-7.333-1.666l-.984-.478.335-1.041c.089-.278,2.25-6.815,7.6-9.1a11.331,11.331,0,0,1,4.435-.861c3.1.009,7.426,1.3,7.928,2.166l.281.485-.172.533c-.089.278-2.25,6.814-7.6,9.1A11.406,11.406,0,0,1,538.263,531.862Zm-5.153-3.494c1.8.649,5.529,1.654,8.657.318s4.98-4.724,5.758-6.474a15.74,15.74,0,0,0-5.158-.976h-.043a8.848,8.848,0,0,0-3.456.66C535.739,523.231,533.888,526.617,533.11,528.368Z" transform="translate(-529.946 -518.719)" fill="#fff"/>
    </g>
    <g id="Groupe_67" data-name="Groupe 67" transform="translate(14.084 37.49)">
      <path id="Tracé_90" data-name="Tracé 90" d="M556.562,510.267l-1.813-1.746a14.632,14.632,0,0,0,3.147-5.652c-1.863-.436-5.683-1.006-8.639.683a11.244,11.244,0,0,0-4.339,5.37l-2.312-1a13.7,13.7,0,0,1,5.4-6.56c5.047-2.884,11.565-.663,11.839-.566l1.033.361-.213,1.073A17.933,17.933,0,0,1,556.562,510.267Z" transform="translate(-542.606 -499.893)" fill="#fff"/>
    </g>
    <g id="Groupe_68" data-name="Groupe 68" transform="translate(20.476 24.462)">
      <path id="Tracé_91" data-name="Tracé 91" d="M566.067,489.8l-2.2-1.224a18.947,18.947,0,0,0,1.9-6.859c-1.941.065-5.7.512-8.088,2.861a9.866,9.866,0,0,0-2.486,4.639l-2.436-.636a12.335,12.335,0,0,1,3.156-5.8c4.145-4.077,11.012-3.589,11.3-3.567l1.189.094-.03,1.192A23.061,23.061,0,0,1,566.067,489.8Z" transform="translate(-552.763 -479.188)" fill="#fff"/>
    </g>
    <g id="Groupe_69" data-name="Groupe 69" transform="translate(17.234 13.23)">
      <path id="Tracé_92" data-name="Tracé 92" d="M547.63,475.964c-.1-2.4.147-6.915,2.931-10.143,3.8-4.4,10.682-4.478,10.973-4.479l1.125,0,.13,1.117a22.07,22.07,0,0,1-.414,6.963l-2.443-.6a18.631,18.631,0,0,0,.435-4.87c-1.909.213-5.684.953-7.9,3.521-2.3,2.667-2.391,6.759-2.323,8.394Z" transform="translate(-547.612 -461.338)" fill="#fff"/>
    </g>
    <g id="Groupe_70" data-name="Groupe 70" transform="translate(15.219 0)">
      <path id="Tracé_93" data-name="Tracé 93" d="M544.76,456a12.9,12.9,0,0,1,.518-7.758c2.287-5.344,8.828-7.5,9.105-7.589l1.041-.335.477.985c.1.2,2.358,4.951,1.438,9.707l-2.472-.478a14.044,14.044,0,0,0-.795-7.052c-1.751.775-5.143,2.625-6.481,5.753a10.817,10.817,0,0,0-.367,6.263Z" transform="translate(-544.409 -440.313)" fill="#fff"/>
    </g>
    <g id="Groupe_71" data-name="Groupe 71" transform="translate(0 58.491)">
      <path id="Tracé_94" data-name="Tracé 94" d="M521.483,538.749a1.259,1.259,0,0,1-.537-2.4l6.3-2.964a1.258,1.258,0,0,1,1.072,2.277l-6.3,2.964A1.249,1.249,0,0,1,521.483,538.749Z" transform="translate(-520.223 -533.268)" fill="#fff"/>
    </g>
  </g>
</svg>
