<svg xmlns="http://www.w3.org/2000/svg" width="78.232" height="93.273" viewBox="0 0 78.232 93.273">
  <g id="Groupe_83" data-name="Groupe 83" transform="translate(-160 -329)">
    <text id="_3" data-name="3" transform="translate(199 371)" fill="#fff" font-size="30" font-family="Helvetica"><tspan x="-8.342" y="0">3</tspan></text>
    <g id="Groupe_82" data-name="Groupe 82" transform="translate(160 329)">
      <g id="Groupe_76" data-name="Groupe 76" transform="translate(18.891 12.211)">
        <g id="Groupe_75" data-name="Groupe 75">
          <path id="Tracé_95" data-name="Tracé 95" d="M213.289,47.792a16.744,16.744,0,1,1-16.743,16.745,16.762,16.762,0,0,1,16.743-16.745m0-3.482a20.226,20.226,0,1,0,20.225,20.226A20.224,20.224,0,0,0,213.289,44.31Z" transform="translate(-193.064 -44.31)" fill="#fff"/>
        </g>
      </g>
      <g id="Groupe_78" data-name="Groupe 78" transform="translate(6.697 0)">
        <path id="Tracé_97" data-name="Tracé 97" d="M225.043,99.76a5.3,5.3,0,0,1-1.409-.184l-5.5-1.511a11.631,11.631,0,0,0-4.564-.111l-5.556,1.24a6.181,6.181,0,0,1-6.113-2.4l-3.238-4.688a11.58,11.58,0,0,0-3.423-3.021l-5.054-2.625a6.175,6.175,0,0,1-3.143-5.766l.533-5.668a11.626,11.626,0,0,0-.682-4.517l-2.185-5.259a6.175,6.175,0,0,1,1.3-6.437l4.057-4a11.6,11.6,0,0,0,2.38-3.9l1.7-5.432a6.173,6.173,0,0,1,5.132-4.1l5.678-.458a11.611,11.611,0,0,0,4.327-1.455l4.8-3.065a6.172,6.172,0,0,1,6.564.16l4.645,3.3a11.59,11.59,0,0,0,4.251,1.667l5.646.738a6.169,6.169,0,0,1,4.925,4.341l1.437,5.512a11.592,11.592,0,0,0,2.185,4.008l3.855,4.2a6.168,6.168,0,0,1,.98,6.491l-2.443,5.145a11.591,11.591,0,0,0-.9,4.475l.253,5.692a6.165,6.165,0,0,1-3.422,5.6l-5.177,2.373a11.571,11.571,0,0,0-3.568,2.847l-3.464,4.524A6.216,6.216,0,0,1,225.043,99.76ZM215.524,94.3a14.127,14.127,0,0,1,3.536.409l5.5,1.511a2.753,2.753,0,0,0,2.533-.852l3.464-4.524a15.073,15.073,0,0,1,4.884-3.9l5.177-2.372a2.75,2.75,0,0,0,1.394-2.283l-.253-5.693a15.1,15.1,0,0,1,1.235-6.122l2.443-5.145a2.744,2.744,0,0,0-.4-2.643l-3.855-4.2a15.107,15.107,0,0,1-2.99-5.483l-1.437-5.512a2.752,2.752,0,0,0-2.007-1.77l-5.645-.737a15.105,15.105,0,0,1-5.816-2.28l-4.646-3.3a2.745,2.745,0,0,0-2.673-.065h0l-4.8,3.065a15.1,15.1,0,0,1-5.922,1.992l-5.678.458a2.75,2.75,0,0,0-2.09,1.668l-1.7,5.432a15.062,15.062,0,0,1-3.256,5.333l-4.057,4a2.749,2.749,0,0,0-.529,2.622l2.185,5.259a15.115,15.115,0,0,1,.933,6.177l-.532,5.67a2.748,2.748,0,0,0,1.28,2.35L196.849,86a15.107,15.107,0,0,1,4.685,4.132l3.237,4.689a2.756,2.756,0,0,0,2.49.976l5.556-1.24A12.95,12.95,0,0,1,215.524,94.3Z" transform="translate(-184.308 -35.542)" fill="#fff"/>
      </g>
      <g id="Groupe_81" data-name="Groupe 81" transform="translate(0 56.861)">
        <g id="Groupe_79" data-name="Groupe 79">
          <path id="Tracé_98" data-name="Tracé 98" d="M199.761,112.782a1.78,1.78,0,0,1-.192-.011,1.738,1.738,0,0,1-1.5-1.316L194.724,97.8l-12.775,5.689a1.742,1.742,0,0,1-2.273-2.354L191.741,76.37,194.87,77.9,184.9,98.359l10.312-4.592a1.739,1.739,0,0,1,2.4,1.177l2.712,11.065,9.119-18.32,3.117,1.551L201.32,111.817A1.741,1.741,0,0,1,199.761,112.782Z" transform="translate(-179.5 -76.37)" fill="#fff"/>
        </g>
        <g id="Groupe_80" data-name="Groupe 80" transform="translate(45.174)">
          <path id="Tracé_99" data-name="Tracé 99" d="M224.732,112.782a1.74,1.74,0,0,1-1.558-.965L211.936,89.241l3.117-1.551,9.119,18.32,2.712-11.065a1.739,1.739,0,0,1,2.4-1.177l10.312,4.592L229.623,77.9l3.129-1.525,12.065,24.761a1.742,1.742,0,0,1-2.273,2.354L229.77,97.8l-3.347,13.66a1.74,1.74,0,0,1-1.5,1.316A1.8,1.8,0,0,1,224.732,112.782Z" transform="translate(-211.936 -76.37)" fill="#fff"/>
        </g>
      </g>
    </g>
  </g>
</svg>
