<svg xmlns="http://www.w3.org/2000/svg" width="51.109" height="26.953" viewBox="0 0 51.109 26.953">
  <g id="Start" transform="translate(0)">
    <path id="Tracé_72" data-name="Tracé 72" d="M494.47,1552.9v-1.529h1v1.415c0,4.059,1,5.7,3.409,5.7,2.488,0,3.29-1.685,3.29-5.208,0-3.907-.536-5.014-3.523-7.274-3.371-2.526-4.1-3.907-4.1-7.734,0-4.059,1.225-5.859,4.249-5.859h.114c2.872,0,4.173,2.027,4.173,6.547v1.8h-1v-1.8c0-4.135-.959-5.668-3.371-5.668-2.336,0-3.176,1.571-3.176,4.9,0,3.523.574,4.6,3.637,6.894,3.409,2.564,3.983,3.865,3.983,8.346,0,4.211-1.3,5.935-4.211,5.935h-.19C495.581,1559.363,494.47,1557.069,494.47,1552.9Z" transform="translate(-494.47 -1532.41)" fill="#fff"/>
    <path id="Tracé_73" data-name="Tracé 73" d="M522.483,1534.427H518.31v-.917h9.381v.917H523.48v25.116h-1v-25.116Z" transform="translate(-508.24 -1533.045)" fill="#fff"/>
    <path id="Tracé_74" data-name="Tracé 74" d="M547.42,1551.356h-5.973l-1.377,7.962h-.921l4.558-26.188H545.2l4.6,26.188h-1.035Zm-5.821-.917h5.664l-2.8-16.579h-.076Z" transform="translate(-520.277 -1532.826)" fill="#fff"/>
    <path id="Tracé_75" data-name="Tracé 75" d="M577.728,1559.542l-3.6-12.173h-3.252v12.173h-1V1533.51h2.526c4.363,0,6.277,1.952,6.277,6.889,0,4.287-1.415,6.048-3.6,6.813l3.675,12.33Zm-4.71-13.094c3.328,0,4.634-1.8,4.634-5.973,0-4.477-1.609-6.049-5.17-6.049h-1.609v12.021Z" transform="translate(-538.027 -1533.045)" fill="#fff"/>
    <path id="Tracé_76" data-name="Tracé 76" d="M597.433,1534.427H593.26v-.917h9.381v.917H598.43v25.116h-1Z" transform="translate(-551.532 -1533.045)" fill="#fff"/>
  </g>
</svg>
